HIERARCHY
ROOT Hips
{
	OFFSET -0.001795 -0.223333 0.028219
	CHANNELS 6 Xposition Yposition Zposition Zrotation Yrotation Xrotation 
	JOINT LeftUpLeg
	{
		OFFSET 0.069520 -0.091406 -0.006815
		CHANNELS 3 Zrotation Yrotation Xrotation
		JOINT LeftLeg
		{
			OFFSET 0.034277 -0.375199 -0.004496
			CHANNELS 3 Zrotation Yrotation Xrotation
			JOINT LeftFoot
			{
				OFFSET -0.013596 -0.397961 -0.043693
				CHANNELS 3 Zrotation Yrotation Xrotation
				JOINT LeftToe
				{
					OFFSET 0.026358 -0.055791 0.119288
					CHANNELS 3 Zrotation Yrotation Xrotation
					End Site
					{
						OFFSET 0.000000 0.000000 0.000000
					}
				}
			}
		}
	}
	JOINT RightUpLeg
	{
		OFFSET -0.067670 -0.090522 -0.004320
		CHANNELS 3 Zrotation Yrotation Xrotation
		JOINT RightLeg
		{
			OFFSET -0.038290 -0.382569 -0.008850
			CHANNELS 3 Zrotation Yrotation Xrotation
			JOINT RightFoot
			{
				OFFSET 0.015774 -0.398415 -0.042312
				CHANNELS 3 Zrotation Yrotation Xrotation
				JOINT RightToe
				{
					OFFSET -0.025372 -0.048144 0.123348
					CHANNELS 3 Zrotation Yrotation Xrotation
					End Site
					{
						OFFSET 0.000000 0.000000 0.000000
					}
				}
			}
		}
	}
	JOINT Spine
	{
		OFFSET -0.002533 0.108963 -0.026696
		CHANNELS 3 Zrotation Yrotation Xrotation
		JOINT Spine1
		{
			OFFSET 0.005487 0.135180 0.001092
			CHANNELS 3 Zrotation Yrotation Xrotation
			JOINT Spine2
			{
				OFFSET 0.001457 0.052922 0.025425
				CHANNELS 3 Zrotation Yrotation Xrotation
				JOINT Neck
				{
					OFFSET -0.002778 0.213870 -0.042857
					CHANNELS 3 Zrotation Yrotation Xrotation
					JOINT Head
					{
						OFFSET 0.005152 0.064970 0.051349
						CHANNELS 3 Zrotation Yrotation Xrotation
						End Site
						{
							OFFSET 0.000000 0.000000 0.000000
						}
					}
				}
				JOINT LeftShoulder
				{
					OFFSET 0.078845 0.121749 -0.034090
					CHANNELS 3 Zrotation Yrotation Xrotation
					JOINT LeftArm
					{
						OFFSET 0.090977 0.030469 -0.008868
						CHANNELS 3 Zrotation Yrotation Xrotation
						JOINT LeftForeArm
						{
							OFFSET 0.259612 -0.012772 -0.027456
							CHANNELS 3 Zrotation Yrotation Xrotation
							JOINT LeftHand
							{
								OFFSET 0.249234 0.008986 -0.001171
								CHANNELS 3 Zrotation Yrotation Xrotation
								End Site
								{
									OFFSET 0.000000 0.000000 0.000000
								}
							}
						}
					}
				}
				JOINT RightShoulder
				{
					OFFSET -0.081759 0.118833 -0.038615
					CHANNELS 3 Zrotation Yrotation Xrotation
					JOINT RightArm
					{
						OFFSET -0.096012 0.032551 -0.009143
						CHANNELS 3 Zrotation Yrotation Xrotation
						JOINT RightForeArm
						{
							OFFSET -0.253742 -0.013329 -0.021401
							CHANNELS 3 Zrotation Yrotation Xrotation
							JOINT RightHand
							{
								OFFSET -0.255298 0.007772 -0.005559
								CHANNELS 3 Zrotation Yrotation Xrotation
								End Site
								{
									OFFSET 0.000000 0.000000 0.000000
								}
							}
						}
					}
				}
			}
		}
	}
}
MOTION
Frames: 5
Frame Time: 0.050000
0.000000 0.880281 0.000000 -2.293040 -6.369821 8.559027 3.391559 -1.598157 -40.866057 -10.329163 5.301589 43.904628 11.685526 24.187786 -3.849063 0.000000 0.000000 0.000000 -10.997362 1.577289 -38.215270 14.703127 -6.339104 65.242234 -9.278818 -23.033897 1.860016 0.000000 0.000000 0.000000 0.076129 -0.721656 52.102999 -4.278789 1.522587 -19.456639 -4.714709 3.225897 24.358650 14.378920 -6.887870 -24.144147 0.000000 0.000000 0.000000 -9.495513 -38.914022 17.029928 -31.681437 -48.342706 6.930594 29.614005 -27.916941 -5.986282 0.000000 0.000000 0.000000 23.034726 22.776145 12.862144 38.659946 40.889472 6.877545 -17.726138 46.554109 -4.691253 0.000000 0.000000 0.000000 
0.000172 0.869646 0.039304 -4.204678 -6.792208 7.734074 5.932570 -0.611689 -39.797107 -10.866836 6.445587 49.115005 10.988405 22.637283 -3.984254 0.000000 0.000000 0.000000 -10.424349 2.136706 -44.050991 17.047116 -7.541471 60.378949 -9.663046 -24.279495 -1.369404 0.000000 0.000000 0.000000 1.115522 -1.201225 53.317407 -2.690104 1.069292 -18.469458 -7.049055 4.920799 23.610003 16.091883 -7.239278 -25.452763 0.000000 0.000000 0.000000 -6.784430 -41.144769 16.717653 -29.915231 -47.261142 6.080597 29.819843 -26.026543 -5.740185 0.000000 0.000000 0.000000 27.364464 23.639365 15.033569 34.006965 40.824113 5.389736 -21.134917 48.407064 -6.274551 0.000000 0.000000 0.000000 
-0.000361 0.856932 0.079085 -3.931382 -5.484034 5.298208 6.291764 -0.710115 -38.671986 -11.595137 7.267175 54.388987 11.407647 23.686075 -6.706926 0.000000 0.000000 0.000000 -11.849714 1.500028 -48.463674 17.593645 -7.438871 52.123173 -9.788085 -24.379343 0.092713 0.000000 0.000000 0.000000 0.794186 -1.451360 56.695211 -3.099490 1.229918 -17.834419 -5.573505 3.389379 22.184168 13.313919 -6.380550 -22.437726 0.000000 0.000000 0.000000 -12.580746 -44.372299 20.445261 -21.305826 -43.154491 2.810623 28.077406 -23.558197 -4.952656 0.000000 0.000000 0.000000 21.891915 24.725149 13.864705 34.954322 41.627598 6.302162 -22.611960 46.315214 -6.824070 0.000000 0.000000 0.000000 
-0.001105 0.840197 0.119433 -4.766118 -4.972063 2.536113 7.818383 -0.284136 -35.776971 -12.605117 8.682043 60.221927 11.854258 24.828324 -9.263677 0.000000 0.000000 0.000000 -10.101112 2.122579 -50.482128 14.886679 -4.868970 40.527515 -9.494905 -23.371735 4.388974 0.000000 0.000000 0.000000 1.828608 -2.333049 60.389849 -4.624083 1.734563 -16.733821 -5.943923 1.011085 21.142789 11.402529 -5.424684 -22.713757 0.000000 0.000000 0.000000 -10.454056 -45.612633 20.309438 -19.906903 -44.823603 2.895414 27.076485 -19.813258 -4.000048 0.000000 0.000000 0.000000 22.186881 26.621540 14.212520 32.804321 41.886168 6.035649 -26.299172 45.775883 -8.637322 0.000000 0.000000 0.000000 
-0.001792 0.816377 0.161221 -4.455587 -4.221972 -0.183399 9.404206 0.120924 -34.164710 -14.607788 11.144272 67.188951 12.800217 26.999587 -10.247002 0.000000 0.000000 0.000000 -9.707173 2.077416 -50.766957 11.969949 -2.917958 29.137953 -8.124035 -20.410776 8.842254 0.000000 0.000000 0.000000 1.671954 -2.581499 62.875001 -5.366666 2.027312 -16.094165 -6.281238 -1.204528 20.908803 11.253300 -5.717669 -22.552588 0.000000 0.000000 0.000000 -10.510091 -47.698583 21.433316 -16.224059 -42.739581 1.749062 25.286096 -17.840007 -3.370138 0.000000 0.000000 0.000000 22.562789 29.749125 15.352665 30.514928 42.822780 5.836952 -28.607293 42.666297 -9.198799 0.000000 0.000000 0.000000 
